<svg xmlns="http://www.w3.org/2000/svg" xmlns:xlink="http://www.w3.org/1999/xlink" width="1000" height="700" version="1.1">
<style type="text/css">
.l0{
  fill: #ffffff;
  stroke: #ffffff;
  stroke-linecap:round;
  stroke-linejoin:round;
  stroke-width: 0.828666;
}
.l1{
  fill: #0055ee;
  stroke: #0055ee;
  stroke-linecap:round;
  stroke-linejoin:round;
  stroke-width: 0.828666;
}
.l2{
  fill: #aaaaaa; fill-opacity: 0.2;
  stroke: #aaaaaa;
  stroke-linecap:round;
  stroke-linejoin:round;
  stroke-width: 0.828666;
}
.l3{
  fill: #222222; fill-opacity: 0.5;
  stroke: #222222;
  stroke-linecap:round;
  stroke-linejoin:round;
  stroke-width: 0.828666;
}
.l4{
  fill: #229900;
  stroke: #229900;
  stroke-linecap:round;
  stroke-linejoin:round;
  stroke-width: 0.828666;
}
.l5{
  fill: #bb2200;
  stroke: #bb2200;
  stroke-linecap:round;
  stroke-linejoin:round;
  stroke-width: 0.828666;
}
.l6{
  fill: #0055ee; fill-opacity: 0.5;
  stroke: #0055ee;
  stroke-linecap:round;
  stroke-linejoin:round;
  stroke-width: 0.828666;
}
.l7{
  fill: #ff0000; fill-opacity: 0.5;
  stroke: #ff0000;
  stroke-linecap:round;
  stroke-linejoin:round;
  stroke-width: 0.828666;
}
.l8{
  fill: #888800; fill-opacity: 0.5;
  stroke: #888800;
  stroke-linecap:round;
  stroke-linejoin:round;
  stroke-width: 0.828666;
}
.l9{
  fill: #00aaaa; fill-opacity: 0.5;
  stroke: #00aaaa;
  stroke-linecap:round;
  stroke-linejoin:round;
  stroke-width: 0.828666;
}
.l10{
  fill: #880088;
  stroke: #880088;
  stroke-linecap:round;
  stroke-linejoin:round;
  stroke-width: 0.828666;
}
.l11{
  fill: #00ff00; fill-opacity: 0.5;
  stroke: #00ff00;
  stroke-linecap:round;
  stroke-linejoin:round;
  stroke-width: 0.828666;
}
.l12{
  fill: #0000cc; fill-opacity: 0.5;
  stroke: #0000cc;
  stroke-linecap:round;
  stroke-linejoin:round;
  stroke-width: 0.828666;
}
.l13{
  fill: #666600; fill-opacity: 0.5;
  stroke: #666600;
  stroke-linecap:round;
  stroke-linejoin:round;
  stroke-width: 0.828666;
}
.l14{
  fill: #557755; fill-opacity: 0.2;
  stroke: #557755;
  stroke-linecap:round;
  stroke-linejoin:round;
  stroke-width: 0.828666;
}
.l15{
  fill: #aa2222; fill-opacity: 0.5;
  stroke: #aa2222;
  stroke-linecap:round;
  stroke-linejoin:round;
  stroke-width: 0.828666;
}
.l16{
  fill: #7ccc40; fill-opacity: 0.5;
  stroke: #7ccc40;
  stroke-linecap:round;
  stroke-linejoin:round;
  stroke-width: 0.828666;
}
.l17{
  fill: #00ffcc; fill-opacity: 0.2;
  stroke: #00ffcc;
  stroke-linecap:round;
  stroke-linejoin:round;
  stroke-width: 0.828666;
}
.l18{
  fill: #ce0097; fill-opacity: 0.5;
  stroke: #ce0097;
  stroke-linecap:round;
  stroke-linejoin:round;
  stroke-width: 0.828666;
}
.l19{
  fill: #d2d46b; fill-opacity: 0.2;
  stroke: #d2d46b;
  stroke-linecap:round;
  stroke-linejoin:round;
  stroke-width: 0.828666;
}
.l20{
  fill: #ef6158; fill-opacity: 0.2;
  stroke: #ef6158;
  stroke-linecap:round;
  stroke-linejoin:round;
  stroke-width: 0.828666;
}
.l21{
  fill: #fdb200; fill-opacity: 0.2;
  stroke: #fdb200;
  stroke-linecap:round;
  stroke-linejoin:round;
  stroke-width: 0.828666;
}
text {font-family: Sans-Serif;}
</style>
<rect class="l0" x="0" y="0" width="1000" height="700"/>
<path class="l4" d="M356.134 462.302L362.273 465.371"/>
<path class="l4" d="M356.134 468.44L362.273 465.371"/>
<path class="l4" d="M349.996 446.956L362.273 446.956"/>
<path class="l4" d="M362.273 437.748L362.273 446.956"/>
<path class="l4" d="M349.996 465.371L362.273 465.371"/>
<path class="l4" d="M362.273 465.371L362.273 474.578"/>
<path class="l4" d="M349.996 456.163L362.273 456.163"/>
<path class="l4" d="M349.996 446.956L349.996 465.371"/>
<path class="l4" d="M346.927 446.956L346.927 465.371"/>
<path class="l4" d="M337.72 456.163L346.927 456.163"/>
<path class="l4" d="M460.485 465.371L466.623 462.302"/>
<path class="l4" d="M460.485 465.371L466.623 468.44"/>
<path class="l4" d="M460.485 446.956L472.761 446.956"/>
<path class="l4" d="M460.485 437.748L460.485 446.956"/>
<path class="l4" d="M460.485 465.371L472.761 465.371"/>
<path class="l4" d="M460.485 465.371L460.485 474.578"/>
<path class="l4" d="M460.485 456.163L472.761 456.163"/>
<path class="l4" d="M472.761 446.956L472.761 465.371"/>
<path class="l4" d="M475.831 446.956L475.831 465.371"/>
<path class="l4" d="M475.831 456.163L485.038 456.163"/>
<path class="l4" d="M577.112 554.376L577.112 566.652"/>
<path class="l4" d="M497.315 591.205L497.315 603.482"/>
<path class="l4" d="M620.08 591.205L620.08 603.482"/>
<path class="l4" d="M374.549 591.205L374.549 603.482"/>
<path class="l4" d="M119.811 591.205L119.811 603.482"/>
<path class="l4" d="M36.9443 591.205L49.2209 591.205"/>
<path class="l4" d="M49.2209 591.205L49.2209 603.482"/>
<path class="l4" d="M693.739 591.205L706.016 591.205"/>
<path class="l4" d="M693.739 591.205L693.739 603.482"/>
<path class="l4" d="M577.112 542.099L577.112 554.376"/>
<path class="l4" d="M577.112 566.652L577.112 578.929"/>
<path class="l4" style="fill:none;" d="M531.075 591.205L706.016 591.205L706.016 542.099L531.075 542.099L531.075 591.205"/>
<path class="l4" style="fill:none;" d="M531.075 554.376L693.739 554.376L693.739 542.099L531.075 542.099L531.075 554.376"/>
<path class="l4" style="fill:none;" d="M36.9443 603.482L706.016 603.482L706.016 591.205L36.9443 591.205L36.9443 603.482"/>
<path class="l4" style="fill:none;" d="M531.075 591.205L693.739 591.205L693.739 578.929L531.075 578.929L531.075 591.205"/>
<path class="l4" style="fill:none;" d="M531.075 578.929L693.739 578.929L693.739 566.652L531.075 566.652L531.075 578.929"/>
<path class="l4" style="fill:none;" d="M531.075 566.652L693.739 566.652L693.739 554.376L531.075 554.376L531.075 566.652"/>
<path class="l4" d="M141.295 146.181L153.571 146.181"/>
<path class="l4" d="M141.295 146.181L141.295 155.388"/>
<path class="l4" d="M141.295 127.766L153.571 127.766"/>
<path class="l4" d="M141.295 118.558L141.295 127.766"/>
<path class="l4" d="M141.295 136.973L153.571 136.973"/>
<path class="l4" d="M143.136 124.697L149.275 127.766"/>
<path class="l4" d="M143.136 130.835L149.275 127.766"/>
<path class="l4" d="M153.571 127.766L153.571 146.181"/>
<path class="l4" d="M156.641 127.766L156.641 146.181"/>
<path class="l4" d="M161.551 136.973L165.848 136.973"/>
<circle class="l4" cx="159.096" cy="136.973" r="2.45531" style="fill:none;" />
<path class="l4" d="M141.295 465.371L147.433 462.302"/>
<path class="l4" d="M141.295 465.371L147.433 468.44"/>
<path class="l4" d="M141.295 446.956L153.571 446.956"/>
<path class="l4" d="M141.295 437.748L141.295 446.956"/>
<path class="l4" d="M141.295 465.371L153.571 465.371"/>
<path class="l4" d="M141.295 465.371L141.295 474.578"/>
<path class="l4" d="M141.295 456.163L153.571 456.163"/>
<path class="l4" d="M153.571 446.956L153.571 465.371"/>
<path class="l4" d="M156.641 446.956L156.641 465.371"/>
<path class="l4" d="M156.641 456.163L165.848 456.163"/>
<path class="l4" d="M577.112 146.181L589.389 146.181"/>
<path class="l4" d="M589.389 146.181L589.389 155.388"/>
<path class="l4" d="M577.112 127.766L589.389 127.766"/>
<path class="l4" d="M589.389 118.558L589.389 127.766"/>
<path class="l4" d="M577.112 136.973L589.389 136.973"/>
<path class="l4" d="M581.409 127.766L587.547 124.697"/>
<path class="l4" d="M581.409 127.766L587.547 130.835"/>
<path class="l4" d="M577.112 127.766L577.112 146.181"/>
<path class="l4" d="M574.043 127.766L574.043 146.181"/>
<path class="l4" d="M564.835 136.973L569.132 136.973"/>
<circle class="l4" cx="571.588" cy="136.973" r="2.45531" style="fill:none;" />
<path class="l4" d="M583.25 462.302L589.389 465.371"/>
<path class="l4" d="M583.25 468.44L589.389 465.371"/>
<path class="l4" d="M577.112 446.956L589.389 446.956"/>
<path class="l4" d="M589.389 437.748L589.389 446.956"/>
<path class="l4" d="M577.112 465.371L589.389 465.371"/>
<path class="l4" d="M589.389 465.371L589.389 474.578"/>
<path class="l4" d="M577.112 456.163L589.389 456.163"/>
<path class="l4" d="M577.112 446.956L577.112 465.371"/>
<path class="l4" d="M574.043 446.956L574.043 465.371"/>
<path class="l4" d="M564.835 456.163L574.043 456.163"/>
<path class="l4" d="M420.586 210.633L429.794 210.633"/>
<path class="l4" d="M417.517 186.079L417.517 192.218"/>
<path class="l4" d="M417.517 229.047L417.517 235.186"/>
<path class="l4" d="M421.814 203.267L421.814 217.998"/>
<path class="l4" d="M417.517 192.218L417.517 195.901"/>
<path class="l4" d="M417.517 225.364L417.517 229.047"/>
<path class="l4" d="M417.517 225.364L421.2 223.523"/>
<path class="l4" d="M413.834 219.84L421.2 223.523"/>
<path class="l4" d="M413.834 219.84L421.2 216.157"/>
<path class="l4" d="M413.834 212.474L421.2 216.157"/>
<path class="l4" d="M413.834 212.474L421.2 208.791"/>
<path class="l4" d="M413.834 205.108L421.2 208.791"/>
<path class="l4" d="M413.834 205.108L421.2 201.425"/>
<path class="l4" d="M413.834 197.742L421.2 201.425"/>
<path class="l4" d="M413.834 197.742L417.517 195.901"/>
<path class="l4" d="M245.645 146.181L257.922 146.181"/>
<path class="l4" d="M257.922 146.181L257.922 155.388"/>
<path class="l4" d="M245.645 127.766L257.922 127.766"/>
<path class="l4" d="M257.922 118.558L257.922 127.766"/>
<path class="l4" d="M245.645 136.973L257.922 136.973"/>
<path class="l4" d="M249.942 127.766L256.081 124.697"/>
<path class="l4" d="M249.942 127.766L256.081 130.835"/>
<path class="l4" d="M245.645 127.766L245.645 146.181"/>
<path class="l4" d="M242.576 127.766L242.576 146.181"/>
<path class="l4" d="M233.369 136.973L237.666 136.973"/>
<circle class="l4" cx="240.121" cy="136.973" r="2.45531" style="fill:none;" />
<path class="l4" d="M405.24 146.181L417.517 146.181"/>
<path class="l4" d="M417.517 146.181L417.517 155.388"/>
<path class="l4" d="M405.24 127.766L417.517 127.766"/>
<path class="l4" d="M417.517 118.558L417.517 127.766"/>
<path class="l4" d="M405.24 136.973L417.517 136.973"/>
<path class="l4" d="M409.537 127.766L415.676 124.697"/>
<path class="l4" d="M409.537 127.766L415.676 130.835"/>
<path class="l4" d="M405.24 127.766L405.24 146.181"/>
<path class="l4" d="M402.171 127.766L402.171 146.181"/>
<path class="l4" d="M392.964 136.973L397.261 136.973"/>
<circle class="l4" cx="399.716" cy="136.973" r="2.45531" style="fill:none;" />
<path class="l4" d="M515.729 146.181L528.006 146.181"/>
<path class="l4" d="M528.006 146.181L528.006 155.388"/>
<path class="l4" d="M515.729 127.766L528.006 127.766"/>
<path class="l4" d="M528.006 118.558L528.006 127.766"/>
<path class="l4" d="M515.729 136.973L528.006 136.973"/>
<path class="l4" d="M520.026 127.766L526.164 124.697"/>
<path class="l4" d="M520.026 127.766L526.164 130.835"/>
<path class="l4" d="M515.729 127.766L515.729 146.181"/>
<path class="l4" d="M512.66 127.766L512.66 146.181"/>
<path class="l4" d="M503.453 136.973L507.75 136.973"/>
<circle class="l4" cx="510.205" cy="136.973" r="2.45531" style="fill:none;" />
<path class="l4" d="M239.507 499.131L245.645 502.2"/>
<path class="l4" d="M239.507 505.269L245.645 502.2"/>
<path class="l4" d="M233.369 483.785L245.645 483.785"/>
<path class="l4" d="M245.645 474.578L245.645 483.785"/>
<path class="l4" d="M233.369 502.2L245.645 502.2"/>
<path class="l4" d="M245.645 502.2L245.645 511.408"/>
<path class="l4" d="M233.369 492.993L245.645 492.993"/>
<path class="l4" d="M233.369 483.785L233.369 502.2"/>
<path class="l4" d="M230.3 483.785L230.3 502.2"/>
<path class="l4" d="M221.092 492.993L230.3 492.993"/>
<path class="l4" d="M540.282 499.131L546.421 502.2"/>
<path class="l4" d="M540.282 505.269L546.421 502.2"/>
<path class="l4" d="M534.144 483.785L546.421 483.785"/>
<path class="l4" d="M546.421 474.578L546.421 483.785"/>
<path class="l4" d="M534.144 502.2L546.421 502.2"/>
<path class="l4" d="M546.421 502.2L546.421 511.408"/>
<path class="l4" d="M534.144 492.993L546.421 492.993"/>
<path class="l4" d="M534.144 483.785L534.144 502.2"/>
<path class="l4" d="M531.075 483.785L531.075 502.2"/>
<path class="l4" d="M521.868 492.993L531.075 492.993"/>
<path class="l4" d="M847.196 456.163L853.334 459.232"/>
<path class="l4" d="M847.196 462.302L853.334 459.232"/>
<path class="l4" d="M841.058 440.818L853.334 440.818"/>
<path class="l4" d="M853.334 431.61L853.334 440.818"/>
<path class="l4" d="M841.058 459.232L853.334 459.232"/>
<path class="l4" d="M853.334 459.232L853.334 468.44"/>
<path class="l4" d="M841.058 450.025L853.334 450.025"/>
<path class="l4" d="M841.058 440.818L841.058 459.232"/>
<path class="l4" d="M837.988 440.818L837.988 459.232"/>
<path class="l4" d="M828.781 450.025L837.988 450.025"/>
<path class="l4" d="M675.324 459.232L681.463 456.163"/>
<path class="l4" d="M675.324 459.232L681.463 462.302"/>
<path class="l4" d="M675.324 440.818L687.601 440.818"/>
<path class="l4" d="M675.324 431.61L675.324 440.818"/>
<path class="l4" d="M675.324 459.232L687.601 459.232"/>
<path class="l4" d="M675.324 459.232L675.324 468.44"/>
<path class="l4" d="M675.324 450.025L687.601 450.025"/>
<path class="l4" d="M687.601 440.818L687.601 459.232"/>
<path class="l4" d="M690.67 440.818L690.67 459.232"/>
<path class="l4" d="M690.67 450.025L699.877 450.025"/>
<path class="l4" d="M675.324 140.042L687.601 140.042"/>
<path class="l4" d="M675.324 140.042L675.324 149.25"/>
<path class="l4" d="M675.324 121.628L687.601 121.628"/>
<path class="l4" d="M675.324 112.42L675.324 121.628"/>
<path class="l4" d="M675.324 130.835L687.601 130.835"/>
<path class="l4" d="M677.166 118.558L683.304 121.628"/>
<path class="l4" d="M677.166 124.697L683.304 121.628"/>
<path class="l4" d="M687.601 121.628L687.601 140.042"/>
<path class="l4" d="M690.67 121.628L690.67 140.042"/>
<path class="l4" d="M695.581 130.835L699.877 130.835"/>
<circle class="l4" cx="693.125" cy="130.835" r="2.45531" style="fill:none;" />
<path class="l4" d="M675.324 189.149L687.601 189.149"/>
<path class="l4" d="M675.324 189.149L675.324 198.356"/>
<path class="l4" d="M675.324 170.734L687.601 170.734"/>
<path class="l4" d="M675.324 161.526L675.324 170.734"/>
<path class="l4" d="M675.324 179.941L687.601 179.941"/>
<path class="l4" d="M677.166 167.665L683.304 170.734"/>
<path class="l4" d="M677.166 173.803L683.304 170.734"/>
<path class="l4" d="M687.601 170.734L687.601 189.149"/>
<path class="l4" d="M690.67 170.734L690.67 189.149"/>
<path class="l4" d="M695.581 179.941L699.877 179.941"/>
<circle class="l4" cx="693.125" cy="179.941" r="2.45531" style="fill:none;" />
<path class="l4" d="M675.324 232.116L687.601 232.116"/>
<path class="l4" d="M675.324 232.116L675.324 241.324"/>
<path class="l4" d="M675.324 213.702L687.601 213.702"/>
<path class="l4" d="M675.324 204.494L675.324 213.702"/>
<path class="l4" d="M675.324 222.909L687.601 222.909"/>
<path class="l4" d="M677.166 210.633L683.304 213.702"/>
<path class="l4" d="M677.166 216.771L683.304 213.702"/>
<path class="l4" d="M687.601 213.702L687.601 232.116"/>
<path class="l4" d="M690.67 213.702L690.67 232.116"/>
<path class="l4" d="M695.581 222.909L699.877 222.909"/>
<circle class="l4" cx="693.125" cy="222.909" r="2.45531" style="fill:none;" />
<path class="l4" d="M675.324 287.361L687.601 287.361"/>
<path class="l4" d="M675.324 287.361L675.324 296.568"/>
<path class="l4" d="M675.324 268.946L687.601 268.946"/>
<path class="l4" d="M675.324 259.739L675.324 268.946"/>
<path class="l4" d="M675.324 278.153L687.601 278.153"/>
<path class="l4" d="M677.166 265.877L683.304 268.946"/>
<path class="l4" d="M677.166 272.015L683.304 268.946"/>
<path class="l4" d="M687.601 268.946L687.601 287.361"/>
<path class="l4" d="M690.67 268.946L690.67 287.361"/>
<path class="l4" d="M695.581 278.153L699.877 278.153"/>
<circle class="l4" cx="693.125" cy="278.153" r="2.45531" style="fill:none;" />
<path class="l4" d="M675.324 336.467L687.601 336.467"/>
<path class="l4" d="M675.324 336.467L675.324 345.674"/>
<path class="l4" d="M675.324 318.052L687.601 318.052"/>
<path class="l4" d="M675.324 308.845L675.324 318.052"/>
<path class="l4" d="M675.324 327.26L687.601 327.26"/>
<path class="l4" d="M677.166 314.983L683.304 318.052"/>
<path class="l4" d="M677.166 321.121L683.304 318.052"/>
<path class="l4" d="M687.601 318.052L687.601 336.467"/>
<path class="l4" d="M690.67 318.052L690.67 336.467"/>
<path class="l4" d="M695.581 327.26L699.877 327.26"/>
<circle class="l4" cx="693.125" cy="327.26" r="2.45531" style="fill:none;" />
<path class="l4" d="M767.398 492.993L773.537 496.062"/>
<path class="l4" d="M767.398 499.131L773.537 496.062"/>
<path class="l4" d="M761.26 477.647L773.537 477.647"/>
<path class="l4" d="M773.537 468.44L773.537 477.647"/>
<path class="l4" d="M761.26 496.062L773.537 496.062"/>
<path class="l4" d="M773.537 496.062L773.537 505.269"/>
<path class="l4" d="M761.26 486.855L773.537 486.855"/>
<path class="l4" d="M761.26 477.647L761.26 496.062"/>
<path class="l4" d="M758.191 477.647L758.191 496.062"/>
<path class="l4" d="M748.984 486.855L758.191 486.855"/>
<path class="l4" d="M785.813 146.181L798.09 146.181"/>
<path class="l4" d="M785.813 146.181L785.813 155.388"/>
<path class="l4" d="M785.813 127.766L798.09 127.766"/>
<path class="l4" d="M785.813 118.558L785.813 127.766"/>
<path class="l4" d="M785.813 136.973L798.09 136.973"/>
<path class="l4" d="M787.655 124.697L793.793 127.766"/>
<path class="l4" d="M787.655 130.835L793.793 127.766"/>
<path class="l4" d="M798.09 127.766L798.09 146.181"/>
<path class="l4" d="M801.159 127.766L801.159 146.181"/>
<path class="l4" d="M806.069 136.973L810.366 136.973"/>
<circle class="l4" cx="803.614" cy="136.973" r="2.45531" style="fill:none;" />
<path class="l4" d="M675.324 385.573L687.601 385.573"/>
<path class="l4" d="M675.324 385.573L675.324 394.781"/>
<path class="l4" d="M675.324 367.158L687.601 367.158"/>
<path class="l4" d="M675.324 357.951L675.324 367.158"/>
<path class="l4" d="M675.324 376.366L687.601 376.366"/>
<path class="l4" d="M677.166 364.089L683.304 367.158"/>
<path class="l4" d="M677.166 370.228L683.304 367.158"/>
<path class="l4" d="M687.601 367.158L687.601 385.573"/>
<path class="l4" d="M690.67 367.158L690.67 385.573"/>
<path class="l4" d="M695.581 376.366L699.877 376.366"/>
<circle class="l4" cx="693.125" cy="376.366" r="2.45531" style="fill:none;" />
<path class="l4" d="M349.996 287.361L362.273 287.361"/>
<path class="l4" d="M362.273 287.361L362.273 296.568"/>
<path class="l4" d="M349.996 268.946L362.273 268.946"/>
<path class="l4" d="M362.273 259.739L362.273 268.946"/>
<path class="l4" d="M349.996 278.153L362.273 278.153"/>
<path class="l4" d="M354.293 268.946L360.431 265.877"/>
<path class="l4" d="M354.293 268.946L360.431 272.015"/>
<path class="l4" d="M349.996 268.946L349.996 287.361"/>
<path class="l4" d="M346.927 268.946L346.927 287.361"/>
<path class="l4" d="M337.72 278.153L342.016 278.153"/>
<circle class="l4" cx="344.472" cy="278.153" r="2.45531" style="fill:none;" />
<path class="l4" d="M460.485 287.361L472.761 287.361"/>
<path class="l4" d="M460.485 287.361L460.485 296.568"/>
<path class="l4" d="M460.485 268.946L472.761 268.946"/>
<path class="l4" d="M460.485 259.739L460.485 268.946"/>
<path class="l4" d="M460.485 278.153L472.761 278.153"/>
<path class="l4" d="M462.326 265.877L468.465 268.946"/>
<path class="l4" d="M462.326 272.015L468.465 268.946"/>
<path class="l4" d="M472.761 268.946L472.761 287.361"/>
<path class="l4" d="M475.831 268.946L475.831 287.361"/>
<path class="l4" d="M480.741 278.153L485.038 278.153"/>
<circle class="l4" cx="478.286" cy="278.153" r="2.45531" style="fill:none;" />
<path class="l4" d="M785.813 281.223L798.09 281.223"/>
<path class="l4" d="M798.09 281.223L798.09 290.43"/>
<path class="l4" d="M785.813 262.808L798.09 262.808"/>
<path class="l4" d="M798.09 253.6L798.09 262.808"/>
<path class="l4" d="M785.813 272.015L798.09 272.015"/>
<path class="l4" d="M790.11 262.808L796.248 259.739"/>
<path class="l4" d="M790.11 262.808L796.248 265.877"/>
<path class="l4" d="M785.813 262.808L785.813 281.223"/>
<path class="l4" d="M782.744 262.808L782.744 281.223"/>
<path class="l4" d="M773.537 272.015L777.833 272.015"/>
<circle class="l4" cx="780.289" cy="272.015" r="2.45531" style="fill:none;" />
<path class="l4" d="M914.717 281.223L926.993 281.223"/>
<path class="l4" d="M914.717 281.223L914.717 290.43"/>
<path class="l4" d="M914.717 262.808L926.993 262.808"/>
<path class="l4" d="M914.717 253.6L914.717 262.808"/>
<path class="l4" d="M914.717 272.015L926.993 272.015"/>
<path class="l4" d="M916.558 259.739L922.697 262.808"/>
<path class="l4" d="M916.558 265.877L922.697 262.808"/>
<path class="l4" d="M926.993 262.808L926.993 281.223"/>
<path class="l4" d="M930.062 262.808L930.062 281.223"/>
<path class="l4" d="M934.973 272.015L939.27 272.015"/>
<circle class="l4" cx="932.518" cy="272.015" r="2.45531" style="fill:none;" />
<path class="l5" d="M607.803 370.228L613.174 370.228"/>
<path class="l5" d="M618.545 370.228L616.243 367.158L610.872 367.158L613.174 370.228L610.872 373.297L616.243 373.297L618.545 370.228"/>
<path class="l5" d="M607.036 369.46L608.571 369.46L608.571 370.995L607.036 370.995L607.036 369.46z"/>
<path class="l5" d="M497.315 278.153L500.384 278.153"/>
<path class="l5" d="M500.384 278.153L502.685 281.223L508.056 281.223L505.755 278.153L508.056 275.084L502.685 275.084L500.384 278.153"/>
<path class="l5" d="M496.547 277.386L498.082 277.386L498.082 278.921L496.547 278.921L496.547 277.386z"/>
<path class="l5" d="M322.374 278.153L325.443 278.153"/>
<path class="l5" d="M322.374 278.153L320.072 281.223L314.701 281.223L317.003 278.153L314.701 275.084L320.072 275.084L322.374 278.153"/>
<path class="l5" d="M324.676 277.386L326.21 277.386L326.21 278.921L324.676 278.921L324.676 277.386z"/>
<path class="l5" d="M113.673 106.282L116.742 106.282"/>
<path class="l5" d="M113.673 106.282L111.371 109.351L106 109.351L108.302 106.282L106 103.213L111.371 103.213L113.673 106.282"/>
<path class="l5" d="M115.975 105.515L117.509 105.515L117.509 107.049L115.975 107.049L115.975 105.515z"/>
<path class="l5" d="M89.1196 523.684L92.1887 523.684"/>
<path class="l5" d="M89.1196 523.684L86.8178 526.753L81.4468 526.753L83.7486 523.684L81.4468 520.615L86.8178 520.615L89.1196 523.684"/>
<path class="l5" d="M91.4215 522.917L92.956 522.917L92.956 524.452L91.4215 524.452L91.4215 522.917z"/>
<path class="l5" d="M359.817 435.293L364.728 435.293L364.728 440.204L359.817 440.204L359.817 435.293z"/>
<path class="l5" d="M335.264 453.708L340.175 453.708L340.175 458.619L335.264 458.619L335.264 453.708z"/>
<path class="l5" d="M359.817 472.123L364.728 472.123L364.728 477.033L359.817 477.033L359.817 472.123z"/>
<path class="l5" d="M359.817 453.708L364.728 453.708L364.728 458.619L359.817 458.619L359.817 453.708z"/>
<path class="l5" d="M458.03 435.293L462.94 435.293L462.94 440.204L458.03 440.204L458.03 435.293z"/>
<path class="l5" d="M482.583 453.708L487.493 453.708L487.493 458.619L482.583 458.619L482.583 453.708z"/>
<path class="l5" d="M458.03 472.123L462.94 472.123L462.94 477.033L458.03 477.033L458.03 472.123z"/>
<path class="l5" d="M458.03 453.708L462.94 453.708L462.94 458.619L458.03 458.619L458.03 453.708z"/>
<path class="l5" d="M361.505 246.695L363.04 246.695L363.04 248.229L361.505 248.229L361.505 246.695z"/>
<path class="l5" d="M361.505 418.566L363.04 418.566L363.04 420.101L361.505 420.101L361.505 418.566z"/>
<path class="l5" d="M138.84 152.933L143.75 152.933L143.75 157.843L138.84 157.843L138.84 152.933z"/>
<path class="l5" d="M163.393 134.518L168.303 134.518L168.303 139.429L163.393 139.429L163.393 134.518z"/>
<path class="l5" d="M138.84 116.103L143.75 116.103L143.75 121.014L138.84 121.014L138.84 116.103z"/>
<path class="l5" d="M138.84 134.518L143.75 134.518L143.75 139.429L138.84 139.429L138.84 134.518z"/>
<path class="l5" d="M138.84 435.293L143.75 435.293L143.75 440.204L138.84 440.204L138.84 435.293z"/>
<path class="l5" d="M163.393 453.708L168.303 453.708L168.303 458.619L163.393 458.619L163.393 453.708z"/>
<path class="l5" d="M138.84 472.123L143.75 472.123L143.75 477.033L138.84 477.033L138.84 472.123z"/>
<path class="l5" d="M138.84 453.708L143.75 453.708L143.75 458.619L138.84 458.619L138.84 453.708z"/>
<path class="l5" d="M586.933 152.933L591.844 152.933L591.844 157.843L586.933 157.843L586.933 152.933z"/>
<path class="l5" d="M562.38 134.518L567.291 134.518L567.291 139.429L562.38 139.429L562.38 134.518z"/>
<path class="l5" d="M586.933 116.103L591.844 116.103L591.844 121.014L586.933 121.014L586.933 116.103z"/>
<path class="l5" d="M586.933 134.518L591.844 134.518L591.844 139.429L586.933 139.429L586.933 134.518z"/>
<path class="l5" d="M586.933 435.293L591.844 435.293L591.844 440.204L586.933 440.204L586.933 435.293z"/>
<path class="l5" d="M562.38 453.708L567.291 453.708L567.291 458.619L562.38 458.619L562.38 453.708z"/>
<path class="l5" d="M586.933 472.123L591.844 472.123L591.844 477.033L586.933 477.033L586.933 472.123z"/>
<path class="l5" d="M586.933 453.708L591.844 453.708L591.844 458.619L586.933 458.619L586.933 453.708z"/>
<path class="l5" d="M459.718 418.566L461.252 418.566L461.252 420.101L459.718 420.101L459.718 418.566z"/>
<path class="l5" d="M415.062 183.624L419.972 183.624L419.972 188.535L415.062 188.535L415.062 183.624z"/>
<path class="l5" d="M415.062 232.73L419.972 232.73L419.972 237.641L415.062 237.641L415.062 232.73z"/>
<path class="l5" d="M427.338 208.177L432.249 208.177L432.249 213.088L427.338 213.088L427.338 208.177z"/>
<path class="l5" d="M101.396 327.26L104.465 327.26"/>
<path class="l5" d="M101.396 327.26L99.0943 330.329L93.7233 330.329L96.0252 327.26L93.7233 324.19L99.0943 324.19L101.396 327.26"/>
<path class="l5" d="M103.698 326.492L105.233 326.492L105.233 328.027L103.698 328.027L103.698 326.492z"/>
<path class="l5" d="M255.467 152.933L260.377 152.933L260.377 157.843L255.467 157.843L255.467 152.933z"/>
<path class="l5" d="M230.914 134.518L235.824 134.518L235.824 139.429L230.914 139.429L230.914 134.518z"/>
<path class="l5" d="M255.467 116.103L260.377 116.103L260.377 121.014L255.467 121.014L255.467 116.103z"/>
<path class="l5" d="M255.467 134.518L260.377 134.518L260.377 139.429L255.467 139.429L255.467 134.518z"/>
<path class="l5" d="M415.062 152.933L419.972 152.933L419.972 157.843L415.062 157.843L415.062 152.933z"/>
<path class="l5" d="M390.509 134.518L395.419 134.518L395.419 139.429L390.509 139.429L390.509 134.518z"/>
<path class="l5" d="M415.062 116.103L419.972 116.103L419.972 121.014L415.062 121.014L415.062 116.103z"/>
<path class="l5" d="M415.062 134.518L419.972 134.518L419.972 139.429L415.062 139.429L415.062 134.518z"/>
<path class="l5" d="M525.551 152.933L530.461 152.933L530.461 157.843L525.551 157.843L525.551 152.933z"/>
<path class="l5" d="M500.997 134.518L505.908 134.518L505.908 139.429L500.997 139.429L500.997 134.518z"/>
<path class="l5" d="M525.551 116.103L530.461 116.103L530.461 121.014L525.551 121.014L525.551 116.103z"/>
<path class="l5" d="M525.551 134.518L530.461 134.518L530.461 139.429L525.551 139.429L525.551 134.518z"/>
<path class="l5" d="M243.19 472.123L248.101 472.123L248.101 477.033L243.19 477.033L243.19 472.123z"/>
<path class="l5" d="M218.637 490.538L223.548 490.538L223.548 495.448L218.637 495.448L218.637 490.538z"/>
<path class="l5" d="M243.19 508.952L248.101 508.952L248.101 513.863L243.19 513.863L243.19 508.952z"/>
<path class="l5" d="M243.19 490.538L248.101 490.538L248.101 495.448L243.19 495.448L243.19 490.538z"/>
<path class="l5" d="M543.965 472.123L548.876 472.123L548.876 477.033L543.965 477.033L543.965 472.123z"/>
<path class="l5" d="M519.412 490.538L524.323 490.538L524.323 495.448L519.412 495.448L519.412 490.538z"/>
<path class="l5" d="M543.965 508.952L548.876 508.952L548.876 513.863L543.965 513.863L543.965 508.952z"/>
<path class="l5" d="M543.965 490.538L548.876 490.538L548.876 495.448L543.965 495.448L543.965 490.538z"/>
<path class="l5" d="M101.396 179.941L104.465 179.941"/>
<path class="l5" d="M101.396 179.941L99.0943 183.01L93.7233 183.01L96.0252 179.941L93.7233 176.872L99.0943 176.872L101.396 179.941"/>
<path class="l5" d="M103.698 179.174L105.233 179.174L105.233 180.708L103.698 180.708L103.698 179.174z"/>
<path class="l5" d="M754.355 271.248L755.889 271.248L755.889 272.782L754.355 272.782L754.355 271.248z"/>
<path class="l5" d="M969.194 271.248L970.729 271.248L970.729 272.782L969.194 272.782L969.194 271.248z"/>
<path class="l5" d="M850.879 429.155L855.789 429.155L855.789 434.066L850.879 434.066L850.879 429.155z"/>
<path class="l5" d="M826.326 447.57L831.236 447.57L831.236 452.48L826.326 452.48L826.326 447.57z"/>
<path class="l5" d="M850.879 465.985L855.789 465.985L855.789 470.895L850.879 470.895L850.879 465.985z"/>
<path class="l5" d="M850.879 447.57L855.789 447.57L855.789 452.48L850.879 452.48L850.879 447.57z"/>
<path class="l5" d="M672.869 429.155L677.78 429.155L677.78 434.066L672.869 434.066L672.869 429.155z"/>
<path class="l5" d="M697.422 447.57L702.333 447.57L702.333 452.48L697.422 452.48L697.422 447.57z"/>
<path class="l5" d="M672.869 465.985L677.78 465.985L677.78 470.895L672.869 470.895L672.869 465.985z"/>
<path class="l5" d="M672.869 447.57L677.78 447.57L677.78 452.48L672.869 452.48L672.869 447.57z"/>
<path class="l5" d="M672.869 146.795L677.78 146.795L677.78 151.705L672.869 151.705L672.869 146.795z"/>
<path class="l5" d="M697.422 128.38L702.333 128.38L702.333 133.29L697.422 133.29L697.422 128.38z"/>
<path class="l5" d="M672.869 109.965L677.78 109.965L677.78 114.876L672.869 114.876L672.869 109.965z"/>
<path class="l5" d="M672.869 128.38L677.78 128.38L677.78 133.29L672.869 133.29L672.869 128.38z"/>
<path class="l5" d="M718.292 167.665L723.663 167.665"/>
<path class="l5" d="M729.034 167.665L726.732 164.595L721.361 164.595L723.663 167.665L721.361 170.734L726.732 170.734L729.034 167.665"/>
<path class="l5" d="M717.525 166.897L719.059 166.897L719.059 168.432L717.525 168.432L717.525 166.897z"/>
<path class="l5" d="M672.869 195.901L677.78 195.901L677.78 200.811L672.869 200.811L672.869 195.901z"/>
<path class="l5" d="M697.422 177.486L702.333 177.486L702.333 182.396L697.422 182.396L697.422 177.486z"/>
<path class="l5" d="M672.869 159.071L677.78 159.071L677.78 163.982L672.869 163.982L672.869 159.071z"/>
<path class="l5" d="M672.869 177.486L677.78 177.486L677.78 182.396L672.869 182.396L672.869 177.486z"/>
<path class="l5" d="M672.869 238.869L677.78 238.869L677.78 243.779L672.869 243.779L672.869 238.869z"/>
<path class="l5" d="M697.422 220.454L702.333 220.454L702.333 225.364L697.422 225.364L697.422 220.454z"/>
<path class="l5" d="M672.869 202.039L677.78 202.039L677.78 206.95L672.869 206.95L672.869 202.039z"/>
<path class="l5" d="M672.869 220.454L677.78 220.454L677.78 225.364L672.869 225.364L672.869 220.454z"/>
<path class="l5" d="M672.869 294.113L677.78 294.113L677.78 299.024L672.869 299.024L672.869 294.113z"/>
<path class="l5" d="M697.422 275.698L702.333 275.698L702.333 280.609L697.422 280.609L697.422 275.698z"/>
<path class="l5" d="M672.869 257.283L677.78 257.283L677.78 262.194L672.869 262.194L672.869 257.283z"/>
<path class="l5" d="M672.869 275.698L677.78 275.698L677.78 280.609L672.869 280.609L672.869 275.698z"/>
<path class="l5" d="M672.869 343.219L677.78 343.219L677.78 348.13L672.869 348.13L672.869 343.219z"/>
<path class="l5" d="M697.422 324.804L702.333 324.804L702.333 329.715L697.422 329.715L697.422 324.804z"/>
<path class="l5" d="M672.869 306.39L677.78 306.39L677.78 311.3L672.869 311.3L672.869 306.39z"/>
<path class="l5" d="M672.869 324.804L677.78 324.804L677.78 329.715L672.869 329.715L672.869 324.804z"/>
<path class="l5" d="M771.081 465.985L775.992 465.985L775.992 470.895L771.081 470.895L771.081 465.985z"/>
<path class="l5" d="M746.528 484.399L751.439 484.399L751.439 489.31L746.528 489.31L746.528 484.399z"/>
<path class="l5" d="M771.081 502.814L775.992 502.814L775.992 507.725L771.081 507.725L771.081 502.814z"/>
<path class="l5" d="M771.081 484.399L775.992 484.399L775.992 489.31L771.081 489.31L771.081 484.399z"/>
<path class="l5" d="M783.358 152.933L788.268 152.933L788.268 157.843L783.358 157.843L783.358 152.933z"/>
<path class="l5" d="M807.911 134.518L812.822 134.518L812.822 139.429L807.911 139.429L807.911 134.518z"/>
<path class="l5" d="M783.358 116.103L788.268 116.103L788.268 121.014L783.358 121.014L783.358 116.103z"/>
<path class="l5" d="M783.358 134.518L788.268 134.518L788.268 139.429L783.358 139.429L783.358 134.518z"/>
<path class="l5" d="M441.303 209.865L442.837 209.865L442.837 211.4L441.303 211.4L441.303 209.865z"/>
<path class="l5" d="M821.875 136.206L823.41 136.206L823.41 137.741L821.875 137.741L821.875 136.206z"/>
<path class="l5" d="M672.869 392.325L677.78 392.325L677.78 397.236L672.869 397.236L672.869 392.325z"/>
<path class="l5" d="M697.422 373.91L702.333 373.91L702.333 378.821L697.422 378.821L697.422 373.91z"/>
<path class="l5" d="M672.869 355.496L677.78 355.496L677.78 360.406L672.869 360.406L672.869 355.496z"/>
<path class="l5" d="M672.869 373.91L677.78 373.91L677.78 378.821L672.869 378.821L672.869 373.91z"/>
<path class="l5" d="M359.817 294.113L364.728 294.113L364.728 299.024L359.817 299.024L359.817 294.113z"/>
<path class="l5" d="M335.264 275.698L340.175 275.698L340.175 280.609L335.264 280.609L335.264 275.698z"/>
<path class="l5" d="M359.817 257.283L364.728 257.283L364.728 262.194L359.817 262.194L359.817 257.283z"/>
<path class="l5" d="M359.817 275.698L364.728 275.698L364.728 280.609L359.817 280.609L359.817 275.698z"/>
<path class="l5" d="M458.03 294.113L462.94 294.113L462.94 299.024L458.03 299.024L458.03 294.113z"/>
<path class="l5" d="M482.583 275.698L487.493 275.698L487.493 280.609L482.583 280.609L482.583 275.698z"/>
<path class="l5" d="M458.03 257.283L462.94 257.283L462.94 262.194L458.03 262.194L458.03 257.283z"/>
<path class="l5" d="M458.03 275.698L462.94 275.698L462.94 280.609L458.03 280.609L458.03 275.698z"/>
<path class="l5" d="M795.634 287.975L800.545 287.975L800.545 292.885L795.634 292.885L795.634 287.975z"/>
<path class="l5" d="M771.081 269.56L775.992 269.56L775.992 274.471L771.081 274.471L771.081 269.56z"/>
<path class="l5" d="M795.634 251.145L800.545 251.145L800.545 256.056L795.634 256.056L795.634 251.145z"/>
<path class="l5" d="M795.634 269.56L800.545 269.56L800.545 274.471L795.634 274.471L795.634 269.56z"/>
<path class="l5" d="M912.262 287.975L917.172 287.975L917.172 292.885L912.262 292.885L912.262 287.975z"/>
<path class="l5" d="M936.815 269.56L941.725 269.56L941.725 274.471L936.815 274.471L936.815 269.56z"/>
<path class="l5" d="M912.262 251.145L917.172 251.145L917.172 256.056L912.262 256.056L912.262 251.145z"/>
<path class="l5" d="M912.262 269.56L917.172 269.56L917.172 274.471L912.262 274.471L912.262 269.56z"/>
<path class="l5" d="M189.634 166.897L191.168 166.897L191.168 168.432L189.634 168.432L189.634 166.897z"/>
<path class="l5" d="M852.567 387.875L854.101 387.875L854.101 389.41L852.567 389.41L852.567 387.875z"/>
<text fill="#0055ee"  xml:space="preserve" font-size="10.5333" transform="translate(620.08, 374.421)" >VO</text>
<text fill="#0055ee"  xml:space="preserve" font-size="10.5333" transform="translate(508.824, 281.007)" >VIP</text>
<text fill="#0055ee"  xml:space="preserve" font-size="10.5333" transform="translate(295.934, 281.007)" >VIN</text>
<text fill="#0055ee"  xml:space="preserve" font-size="10.5333" transform="translate(56.2326, 109.135)" >VDD_1V8</text>
<text fill="#0055ee"  xml:space="preserve" font-size="10.5333" transform="translate(59.6795, 526.538)" >VSS</text>
<text fill="#222222"  xml:space="preserve" font-size="5.10704" transform="translate(362.273, 445.524)" >JNWATR_NCH_4C5F0</text>
<text fill="#222222"  xml:space="preserve" font-size="5.10704" transform="translate(362.273, 473.146)" >xca1[3:0]</text>
<text fill="#222222"  xml:space="preserve" font-size="5.10704" transform="translate(403.485, 445.524)" >JNWATR_NCH_4C5F0</text>
<text fill="#222222"  xml:space="preserve" font-size="5.10704" transform="translate(436.485, 473.146)" >xcb2[3:0]</text>
<text fill="#222222"  xml:space="preserve" font-size="7.97975" transform="translate(534.144, 563.259)" >Updated</text>
<text fill="#222222"  xml:space="preserve" font-size="7.97975" transform="translate(52.29, 600.089)" >Library/Cell</text>
<text fill="#222222"  xml:space="preserve" font-size="7.97975" transform="translate(534.144, 550.983)" >Designer</text>
<text fill="#222222"  xml:space="preserve" font-size="7.97975" transform="translate(534.144, 575.536)" >Modified</text>
<text fill="#222222"  xml:space="preserve" font-size="7.97975" transform="translate(537.213, 587.813)" >Copyright</text>
<text fill="#222222"  xml:space="preserve" font-size="7.97975" transform="translate(583.25, 563.259)" >thore</text>
<text fill="#222222"  xml:space="preserve" font-size="7.97975" transform="translate(583.25, 575.536)" >2026-01-22  22:16:21</text>
<text fill="#222222"  xml:space="preserve" font-size="7.97975" transform="translate(583.25, 587.813)" >Carsten Wulff Software</text>
<text fill="#222222"  xml:space="preserve" font-size="7.97975" transform="translate(122.88, 600.089)" >LELOTEMP_OTA</text>
<text fill="#222222"  xml:space="preserve" font-size="7.97975" transform="translate(583.25, 550.983)" >Carsten Wulff</text>
<text fill="#0055ee"  xml:space="preserve" font-size="8.61813" transform="translate(349.738, 244.635)" >VS</text>
<text fill="#0055ee"  xml:space="preserve" font-size="8.61813" transform="translate(342.738, 416.507)" >VD1</text>
<text fill="#222222"  xml:space="preserve" font-size="5.10704" transform="translate(82.2949, 150.887)" >JNWATR_PCH_12C5F0</text>
<text fill="#222222"  xml:space="preserve" font-size="5.10704" transform="translate(129.295, 123.265)" >xba6</text>
<text fill="#222222"  xml:space="preserve" font-size="5.10704" transform="translate(84.2949, 445.524)" >JNWATR_NCH_4C5F0</text>
<text fill="#222222"  xml:space="preserve" font-size="5.10704" transform="translate(129.295, 473.146)" >xca3</text>
<text fill="#222222"  xml:space="preserve" font-size="5.10704" transform="translate(589.389, 150.887)" >JNWATR_PCH_12C5F0</text>
<text fill="#222222"  xml:space="preserve" font-size="5.10704" transform="translate(589.389, 123.265)" >xbb3</text>
<text fill="#222222"  xml:space="preserve" font-size="5.10704" transform="translate(589.389, 445.524)" >JNWATR_NCH_4C5F0</text>
<text fill="#222222"  xml:space="preserve" font-size="5.10704" transform="translate(589.389, 473.146)" >xcb4</text>
<text fill="#0055ee"  xml:space="preserve" font-size="8.61813" transform="translate(462.019, 416.507)" >VD2</text>
<text fill="#222222"  xml:space="preserve" font-size="4.78785" transform="translate(406.588, 229.047) rotate(270)" >xd2</text>
<text fill="#222222"  xml:space="preserve" font-size="4.78785" transform="translate(400.45, 229.047) rotate(270)" >JNWTR_RPPO8</text>
<text fill="#0055ee"  xml:space="preserve" font-size="10.5333" transform="translate(16.956, 330.113)" >PWRUP_N_1V8</text>
<text fill="#222222"  xml:space="preserve" font-size="5.10704" transform="translate(257.922, 150.887)" >JNWATR_PCH_12C5F0</text>
<text fill="#222222"  xml:space="preserve" font-size="5.10704" transform="translate(257.922, 123.265)" >xba7</text>
<text fill="#222222"  xml:space="preserve" font-size="5.10704" transform="translate(417.517, 150.887)" >JNWATR_PCH_12C5F0</text>
<text fill="#222222"  xml:space="preserve" font-size="5.10704" transform="translate(417.517, 123.265)" >xba1</text>
<text fill="#222222"  xml:space="preserve" font-size="5.10704" transform="translate(528.006, 150.887)" >JNWATR_PCH_12C5F0</text>
<text fill="#222222"  xml:space="preserve" font-size="5.10704" transform="translate(528.006, 123.265)" >xba2</text>
<text fill="#222222"  xml:space="preserve" font-size="5.10704" transform="translate(245.645, 482.354)" >JNWATR_NCH_4C5F0</text>
<text fill="#222222"  xml:space="preserve" font-size="5.10704" transform="translate(245.645, 509.976)" >xca1</text>
<text fill="#222222"  xml:space="preserve" font-size="5.10704" transform="translate(546.421, 482.354)" >JNWATR_NCH_4C5F0</text>
<text fill="#222222"  xml:space="preserve" font-size="5.10704" transform="translate(546.421, 509.976)" >xca2</text>
<text fill="#0055ee"  xml:space="preserve" font-size="10.5333" transform="translate(29.956, 182.795)" >PWRUP_1V8</text>
<text fill="#0055ee"  xml:space="preserve" font-size="8.61813" transform="translate(738.587, 269.188)" >VIN</text>
<text fill="#0055ee"  xml:space="preserve" font-size="8.61813" transform="translate(971.496, 269.188)" >VIP</text>
<text fill="#222222"  xml:space="preserve" font-size="5.10704" transform="translate(853.334, 439.386)" >JNWATR_NCH_4C5F0</text>
<text fill="#222222"  xml:space="preserve" font-size="5.10704" transform="translate(853.334, 467.008)" >xcb1</text>
<text fill="#222222"  xml:space="preserve" font-size="5.10704" transform="translate(618.324, 439.386)" >JNWATR_NCH_4C5F0</text>
<text fill="#222222"  xml:space="preserve" font-size="5.10704" transform="translate(651.324, 467.008)" >xcb1[2:0]</text>
<text fill="#222222"  xml:space="preserve" font-size="5.10704" transform="translate(619.324, 144.749)" >JNWATR_PCH_4C1F2</text>
<text fill="#222222"  xml:space="preserve" font-size="5.10704" transform="translate(663.324, 117.127)" >xbb6</text>
<text fill="#0055ee"  xml:space="preserve" font-size="10.5333" transform="translate(730.569, 171.858)" >VCP</text>
<text fill="#222222"  xml:space="preserve" font-size="5.10704" transform="translate(619.324, 193.855)" >JNWATR_PCH_4C1F2</text>
<text fill="#222222"  xml:space="preserve" font-size="5.10704" transform="translate(663.324, 166.233)" >xbb1</text>
<text fill="#222222"  xml:space="preserve" font-size="5.10704" transform="translate(619.324, 236.823)" >JNWATR_PCH_4C1F2</text>
<text fill="#222222"  xml:space="preserve" font-size="5.10704" transform="translate(663.324, 209.201)" >xbb2</text>
<text fill="#222222"  xml:space="preserve" font-size="5.10704" transform="translate(619.324, 292.067)" >JNWATR_PCH_4C1F2</text>
<text fill="#222222"  xml:space="preserve" font-size="5.10704" transform="translate(663.324, 264.445)" >xbb4</text>
<text fill="#222222"  xml:space="preserve" font-size="5.10704" transform="translate(619.324, 341.173)" >JNWATR_PCH_4C1F2</text>
<text fill="#222222"  xml:space="preserve" font-size="5.10704" transform="translate(663.324, 313.551)" >xbb7</text>
<text fill="#222222"  xml:space="preserve" font-size="5.10704" transform="translate(773.537, 476.215)" >JNWATR_NCH_4C5F0</text>
<text fill="#222222"  xml:space="preserve" font-size="5.10704" transform="translate(773.537, 503.837)" >xca4</text>
<text fill="#222222"  xml:space="preserve" font-size="5.10704" transform="translate(726.813, 150.887)" >JNWATR_PCH_12C5F0</text>
<text fill="#222222"  xml:space="preserve" font-size="5.10704" transform="translate(773.813, 123.265)" >xba3</text>
<text fill="#0055ee"  xml:space="preserve" font-size="8.61813" transform="translate(443.605, 207.805)" >VSS</text>
<text fill="#0055ee"  xml:space="preserve" font-size="8.61813" transform="translate(824.177, 134.146)" >PWRUP_1V8</text>
<text fill="#222222"  xml:space="preserve" font-size="5.10704" transform="translate(619.324, 390.28)" >JNWATR_PCH_4C1F2</text>
<text fill="#222222"  xml:space="preserve" font-size="5.10704" transform="translate(663.324, 362.657)" >xbb8</text>
<text fill="#222222"  xml:space="preserve" font-size="5.10704" transform="translate(362.273, 292.067)" >LELOATR_LVT_PCH_12C5F0</text>
<text fill="#222222"  xml:space="preserve" font-size="5.10704" transform="translate(362.273, 264.445)" >xbb1[3:0]</text>
<text fill="#222222"  xml:space="preserve" font-size="5.10704" transform="translate(387.485, 292.067)" >LELOATR_LVT_PCH_12C5F0</text>
<text fill="#222222"  xml:space="preserve" font-size="5.10704" transform="translate(436.485, 264.445)" >xbb0[3:0]</text>
<text fill="#222222"  xml:space="preserve" font-size="5.10704" transform="translate(798.09, 285.929)" >LELOATR_LVT_PCH_12C5F0</text>
<text fill="#222222"  xml:space="preserve" font-size="5.10704" transform="translate(798.09, 258.307)" >xba4</text>
<text fill="#222222"  xml:space="preserve" font-size="5.10704" transform="translate(841.717, 285.929)" >LELOATR_LVT_PCH_12C5F0</text>
<text fill="#222222"  xml:space="preserve" font-size="5.10704" transform="translate(902.717, 258.307)" >xbb5</text>
<text fill="#0055ee"  xml:space="preserve" font-size="8.61813" transform="translate(171.866, 164.838)" >VBP</text>
<text fill="#0055ee"  xml:space="preserve" font-size="8.61813" transform="translate(854.869, 385.815)" >VD3</text>
<path class="l1" d="M92.1887 523.684L159.71 523.684"/>
<path class="l1" d="M116.742 106.282L153.571 106.282"/>
<path class="l1" d="M153.571 106.282L399.102 106.282"/>
<path class="l1" d="M399.102 106.282L423.655 106.282"/>
<path class="l1" d="M362.273 278.153L460.485 278.153"/>
<path class="l1" d="M362.273 247.462L362.273 253.6"/>
<path class="l1" d="M362.273 247.462L405.24 247.462"/>
<path class="l1" d="M362.273 253.6L362.273 259.739"/>
<path class="l1" d="M405.24 247.462L515.729 247.462"/>
<path class="l1" d="M460.485 253.6L460.485 259.739"/>
<path class="l1" d="M337.72 523.684L362.273 523.684"/>
<path class="l1" d="M362.273 523.684L460.485 523.684"/>
<path class="l1" d="M159.71 523.684L337.72 523.684"/>
<path class="l1" d="M448.208 106.282L448.208 278.153"/>
<path class="l1" d="M423.655 106.282L448.208 106.282"/>
<path class="l1" d="M122.88 136.973L141.295 136.973"/>
<path class="l1" d="M122.88 106.282L122.88 136.973"/>
<path class="l1" d="M141.295 106.282L141.295 118.558"/>
<path class="l1" d="M564.835 136.973L564.835 167.665"/>
<path class="l1" d="M589.389 136.973L613.942 136.973"/>
<path class="l1" d="M613.942 106.282L613.942 136.973"/>
<path class="l1" d="M448.208 106.282L613.942 106.282"/>
<path class="l1" d="M589.389 106.282L589.389 118.558"/>
<path class="l1" d="M589.389 456.163L601.665 456.163"/>
<path class="l1" d="M460.485 523.684L656.91 523.684"/>
<path class="l1" d="M485.038 456.163L564.835 456.163"/>
<path class="l1" d="M448.208 456.163L460.485 456.163"/>
<path class="l1" d="M313.166 456.163L337.72 456.163"/>
<path class="l1" d="M362.273 456.163L380.687 456.163"/>
<path class="l1" d="M141.295 155.388L141.295 167.665"/>
<path class="l1" d="M141.295 167.665L564.835 167.665"/>
<path class="l1" d="M165.848 136.973L165.848 167.665"/>
<path class="l1" d="M141.295 167.665L141.295 437.748"/>
<path class="l1" d="M165.848 456.163L313.166 456.163"/>
<path class="l1" d="M122.88 456.163L141.295 456.163"/>
<path class="l1" d="M325.443 419.334L362.273 419.334"/>
<path class="l1" d="M325.443 419.334L325.443 456.163"/>
<path class="l1" d="M460.485 419.334L503.453 419.334"/>
<path class="l1" d="M503.453 419.334L503.453 456.163"/>
<path class="l1" d="M589.389 155.388L589.389 437.748"/>
<path class="l1" d="M589.389 370.228L607.803 370.228"/>
<path class="l1" d="M485.038 278.153L497.315 278.153"/>
<path class="l1" d="M325.443 278.153L337.72 278.153"/>
<path class="l1" d="M417.517 241.324L417.517 247.462"/>
<path class="l1" d="M429.794 210.633L442.07 210.633"/>
<path class="l1" d="M257.922 136.973L282.475 136.973"/>
<path class="l1" d="M282.475 106.282L282.475 136.973"/>
<path class="l1" d="M257.922 106.282L257.922 118.558"/>
<path class="l1" d="M257.922 155.388L257.922 167.665"/>
<path class="l1" d="M221.092 136.973L233.369 136.973"/>
<path class="l1" d="M417.517 235.186L417.517 241.324"/>
<path class="l1" d="M417.517 136.973L448.208 136.973"/>
<path class="l1" d="M417.517 106.282L417.517 118.558"/>
<path class="l1" d="M417.517 155.388L417.517 186.079"/>
<path class="l1" d="M374.549 136.973L386.826 136.973"/>
<path class="l1" d="M221.092 179.941L374.549 179.941"/>
<path class="l1" d="M386.826 136.973L392.964 136.973"/>
<path class="l1" d="M528.006 136.973L546.421 136.973"/>
<path class="l1" d="M546.421 106.282L546.421 136.973"/>
<path class="l1" d="M528.006 106.282L528.006 118.558"/>
<path class="l1" d="M528.006 155.388L528.006 192.218"/>
<path class="l1" d="M528.006 192.218L589.389 192.218"/>
<path class="l1" d="M503.453 136.973L503.453 179.941"/>
<path class="l1" d="M374.549 179.941L503.453 179.941"/>
<path class="l1" d="M122.88 456.163L122.88 523.684"/>
<path class="l1" d="M141.295 474.578L141.295 523.684"/>
<path class="l1" d="M362.273 474.578L362.273 523.684"/>
<path class="l1" d="M460.485 474.578L460.485 523.684"/>
<path class="l1" d="M448.208 456.163L448.208 523.684"/>
<path class="l1" d="M380.687 456.163L380.687 523.684"/>
<path class="l1" d="M589.389 474.578L589.389 523.684"/>
<path class="l1" d="M245.645 492.993L264.06 492.993"/>
<path class="l1" d="M264.06 492.993L264.06 523.684"/>
<path class="l1" d="M245.645 511.408L245.645 523.684"/>
<path class="l1" d="M546.421 492.993L564.835 492.993"/>
<path class="l1" d="M564.835 492.993L564.835 523.684"/>
<path class="l1" d="M546.421 511.408L546.421 523.684"/>
<path class="l1" d="M546.421 456.163L546.421 474.578"/>
<path class="l1" d="M245.645 456.163L245.645 474.578"/>
<path class="l1" d="M362.273 296.568L362.273 437.748"/>
<path class="l1" d="M460.485 296.568L460.485 437.748"/>
<path class="l1" d="M221.092 136.973L221.092 179.941"/>
<path class="l1" d="M184.263 179.941L221.092 179.941"/>
<path class="l1" d="M104.465 179.941L184.263 179.941"/>
<path class="l1" d="M104.465 327.26L214.954 327.26"/>
<path class="l1" d="M214.954 327.26L221.092 327.26"/>
<path class="l1" d="M221.092 327.26L221.092 492.993"/>
<path class="l1" d="M325.443 136.973L374.549 136.973"/>
<path class="l1" d="M325.443 136.973L325.443 229.047"/>
<path class="l1" d="M257.922 229.047L325.443 229.047"/>
<path class="l1" d="M257.922 229.047L257.922 327.26"/>
<path class="l1" d="M798.09 272.015L896.302 272.015"/>
<path class="l1" d="M896.302 272.015L914.717 272.015"/>
<path class="l1" d="M798.09 253.6L914.717 253.6"/>
<path class="l1" d="M798.09 247.462L798.09 253.6"/>
<path class="l1" d="M515.729 247.462L798.09 247.462"/>
<path class="l1" d="M798.09 247.462L914.717 247.462"/>
<path class="l1" d="M914.717 247.462L914.717 253.6"/>
<path class="l1" d="M798.09 290.43L798.09 308.845"/>
<path class="l1" d="M798.09 308.845L914.717 308.845"/>
<path class="l1" d="M914.717 290.43L914.717 308.845"/>
<path class="l1" d="M755.122 272.015L773.537 272.015"/>
<path class="l1" d="M939.27 272.015L969.961 272.015"/>
<path class="l1" d="M853.334 450.025L871.749 450.025"/>
<path class="l1" d="M871.749 450.025L871.749 474.578"/>
<path class="l1" d="M853.334 474.578L871.749 474.578"/>
<path class="l1" d="M853.334 468.44L853.334 474.578"/>
<path class="l1" d="M853.334 474.578L853.334 523.684"/>
<path class="l1" d="M656.91 523.684L853.334 523.684"/>
<path class="l1" d="M810.366 450.025L828.781 450.025"/>
<path class="l1" d="M810.366 407.057L810.366 450.025"/>
<path class="l1" d="M810.366 407.057L853.334 407.057"/>
<path class="l1" d="M853.334 407.057L853.334 431.61"/>
<path class="l1" d="M853.334 308.845L853.334 407.057"/>
<path class="l1" d="M755.122 450.025L810.366 450.025"/>
<path class="l1" d="M663.048 450.025L675.324 450.025"/>
<path class="l1" d="M663.048 450.025L663.048 523.684"/>
<path class="l1" d="M675.324 468.44L675.324 523.684"/>
<path class="l1" d="M656.91 130.835L675.324 130.835"/>
<path class="l1" d="M699.877 130.835L699.877 167.665"/>
<path class="l1" d="M613.942 106.282L656.91 106.282"/>
<path class="l1" d="M656.91 106.282L730.569 106.282"/>
<path class="l1" d="M656.91 106.282L656.91 130.835"/>
<path class="l1" d="M699.877 167.665L718.292 167.665"/>
<path class="l1" d="M730.569 106.282L853.334 106.282"/>
<path class="l1" d="M853.334 106.282L853.334 272.015"/>
<path class="l1" d="M699.877 229.047L699.877 259.739"/>
<path class="l1" d="M656.91 222.909L675.324 222.909"/>
<path class="l1" d="M656.91 130.835L656.91 222.909"/>
<path class="l1" d="M656.91 179.941L675.324 179.941"/>
<path class="l1" d="M675.324 149.25L675.324 161.526"/>
<path class="l1" d="M699.877 167.665L699.877 222.909"/>
<path class="l1" d="M699.877 222.909L699.877 229.047"/>
<path class="l1" d="M675.324 198.356L675.324 204.494"/>
<path class="l1" d="M460.485 247.462L460.485 253.6"/>
<path class="l1" d="M601.665 456.163L601.665 523.684"/>
<path class="l1" d="M675.324 106.282L675.324 112.42"/>
<path class="l1" d="M699.877 259.739L699.877 327.26"/>
<path class="l1" d="M675.324 296.568L675.324 308.845"/>
<path class="l1" d="M675.324 241.324L675.324 259.739"/>
<path class="l1" d="M656.91 222.909L656.91 327.26"/>
<path class="l1" d="M656.91 327.26L675.324 327.26"/>
<path class="l1" d="M656.91 278.153L675.324 278.153"/>
<path class="l1" d="M699.877 327.26L699.877 364.089"/>
<path class="l1" d="M699.877 450.025L755.122 450.025"/>
<path class="l1" d="M773.537 486.855L791.951 486.855"/>
<path class="l1" d="M791.951 486.855L791.951 523.684"/>
<path class="l1" d="M773.537 505.269L773.537 523.684"/>
<path class="l1" d="M773.537 450.025L773.537 468.44"/>
<path class="l1" d="M521.868 400.919L748.984 400.919"/>
<path class="l1" d="M748.984 400.919L748.984 486.855"/>
<path class="l1" d="M767.398 136.973L785.813 136.973"/>
<path class="l1" d="M767.398 106.282L767.398 136.973"/>
<path class="l1" d="M785.813 106.282L785.813 118.558"/>
<path class="l1" d="M810.366 136.973L822.643 136.973"/>
<path class="l1" d="M785.813 155.388L785.813 192.218"/>
<path class="l1" d="M699.877 192.218L785.813 192.218"/>
<path class="l1" d="M675.324 345.674L675.324 357.951"/>
<path class="l1" d="M656.91 376.366L675.324 376.366"/>
<path class="l1" d="M656.91 327.26L656.91 376.366"/>
<path class="l1" d="M699.877 364.089L699.877 376.366"/>
<path class="l1" d="M675.324 394.781L675.324 431.61"/>
<path class="l1" d="M675.324 413.195L699.877 413.195"/>
<path class="l1" d="M699.877 376.366L699.877 413.195"/>
<path class="l1" d="M221.092 327.26L257.922 327.26"/>
<path class="l1" d="M221.092 400.919L521.868 400.919"/>
<path class="l1" d="M521.868 400.919L521.868 492.993"/>
<circle class="l1" cx="257.922" cy="106.282" r="2.27116"/>
<circle class="l1" cx="141.295" cy="106.282" r="2.27116"/>
<circle class="l1" cx="122.88" cy="106.282" r="2.27116"/>
<circle class="l1" cx="221.092" cy="327.26" r="2.27116"/>
<circle class="l1" cx="221.092" cy="327.26" r="2.27116"/>
<circle class="l1" cx="221.092" cy="327.26" r="2.27116"/>
<circle class="l1" cx="221.092" cy="179.941" r="2.27116"/>
<circle class="l1" cx="221.092" cy="179.941" r="2.27116"/>
<circle class="l1" cx="221.092" cy="179.941" r="2.27116"/>
<circle class="l1" cx="257.922" cy="167.665" r="2.27116"/>
<circle class="l1" cx="141.295" cy="167.665" r="2.27116"/>
<circle class="l1" cx="165.848" cy="167.665" r="2.27116"/>
<circle class="l1" cx="141.295" cy="167.665" r="2.27116"/>
<circle class="l1" cx="141.295" cy="167.665" r="2.27116"/>
<circle class="l1" cx="221.092" cy="400.919" r="2.27116"/>
<circle class="l1" cx="521.868" cy="400.919" r="2.27116"/>
<circle class="l1" cx="245.645" cy="456.163" r="2.27116"/>
<circle class="l1" cx="245.645" cy="523.684" r="2.27116"/>
<circle class="l1" cx="264.06" cy="523.684" r="2.27116"/>
<circle class="l1" cx="141.295" cy="523.684" r="2.27116"/>
<circle class="l1" cx="122.88" cy="523.684" r="2.27116"/>
<circle class="l1" cx="417.517" cy="106.282" r="2.27116"/>
<circle class="l1" cx="282.475" cy="106.282" r="2.27116"/>
<circle class="l1" cx="448.208" cy="106.282" r="2.27116"/>
<circle class="l1" cx="613.942" cy="106.282" r="2.27116"/>
<circle class="l1" cx="448.208" cy="106.282" r="2.27116"/>
<circle class="l1" cx="448.208" cy="106.282" r="2.27116"/>
<circle class="l1" cx="448.208" cy="278.153" r="2.27116"/>
<circle class="l1" cx="460.485" cy="247.462" r="2.27116"/>
<circle class="l1" cx="798.09" cy="247.462" r="2.27116"/>
<circle class="l1" cx="448.208" cy="136.973" r="2.27116"/>
<circle class="l1" cx="417.517" cy="247.462" r="2.27116"/>
<circle class="l1" cx="521.868" cy="400.919" r="2.27116"/>
<circle class="l1" cx="521.868" cy="400.919" r="2.27116"/>
<circle class="l1" cx="380.687" cy="523.684" r="2.27116"/>
<circle class="l1" cx="448.208" cy="523.684" r="2.27116"/>
<circle class="l1" cx="460.485" cy="523.684" r="2.27116"/>
<circle class="l1" cx="362.273" cy="523.684" r="2.27116"/>
<circle class="l1" cx="503.453" cy="456.163" r="2.27116"/>
<circle class="l1" cx="460.485" cy="419.334" r="2.27116"/>
<circle class="l1" cx="325.443" cy="456.163" r="2.27116"/>
<circle class="l1" cx="362.273" cy="419.334" r="2.27116"/>
<circle class="l1" cx="460.485" cy="523.684" r="2.27116"/>
<circle class="l1" cx="362.273" cy="523.684" r="2.27116"/>
<circle class="l1" cx="460.485" cy="523.684" r="2.27116"/>
<circle class="l1" cx="362.273" cy="523.684" r="2.27116"/>
<circle class="l1" cx="767.398" cy="106.282" r="2.27116"/>
<circle class="l1" cx="675.324" cy="106.282" r="2.27116"/>
<circle class="l1" cx="656.91" cy="106.282" r="2.27116"/>
<circle class="l1" cx="656.91" cy="130.835" r="2.27116"/>
<circle class="l1" cx="656.91" cy="106.282" r="2.27116"/>
<circle class="l1" cx="613.942" cy="106.282" r="2.27116"/>
<circle class="l1" cx="656.91" cy="106.282" r="2.27116"/>
<circle class="l1" cx="528.006" cy="106.282" r="2.27116"/>
<circle class="l1" cx="546.421" cy="106.282" r="2.27116"/>
<circle class="l1" cx="589.389" cy="106.282" r="2.27116"/>
<circle class="l1" cx="613.942" cy="106.282" r="2.27116"/>
<circle class="l1" cx="656.91" cy="327.26" r="2.27116"/>
<circle class="l1" cx="699.877" cy="192.218" r="2.27116"/>
<circle class="l1" cx="656.91" cy="278.153" r="2.27116"/>
<circle class="l1" cx="656.91" cy="327.26" r="2.27116"/>
<circle class="l1" cx="656.91" cy="222.909" r="2.27116"/>
<circle class="l1" cx="656.91" cy="327.26" r="2.27116"/>
<circle class="l1" cx="699.877" cy="167.665" r="2.27116"/>
<circle class="l1" cx="656.91" cy="179.941" r="2.27116"/>
<circle class="l1" cx="656.91" cy="130.835" r="2.27116"/>
<circle class="l1" cx="656.91" cy="222.909" r="2.27116"/>
<circle class="l1" cx="656.91" cy="222.909" r="2.27116"/>
<circle class="l1" cx="699.877" cy="167.665" r="2.27116"/>
<circle class="l1" cx="699.877" cy="167.665" r="2.27116"/>
<circle class="l1" cx="656.91" cy="130.835" r="2.27116"/>
<circle class="l1" cx="589.389" cy="192.218" r="2.27116"/>
<circle class="l1" cx="675.324" cy="413.195" r="2.27116"/>
<circle class="l1" cx="601.665" cy="523.684" r="2.27116"/>
<circle class="l1" cx="675.324" cy="523.684" r="2.27116"/>
<circle class="l1" cx="663.048" cy="523.684" r="2.27116"/>
<circle class="l1" cx="810.366" cy="450.025" r="2.27116"/>
<circle class="l1" cx="546.421" cy="456.163" r="2.27116"/>
<circle class="l1" cx="546.421" cy="523.684" r="2.27116"/>
<circle class="l1" cx="564.835" cy="523.684" r="2.27116"/>
<circle class="l1" cx="589.389" cy="523.684" r="2.27116"/>
<circle class="l1" cx="589.389" cy="370.228" r="2.27116"/>
<circle class="l1" cx="785.813" cy="106.282" r="2.27116"/>
<circle class="l1" cx="853.334" cy="272.015" r="2.27116"/>
<circle class="l1" cx="853.334" cy="308.845" r="2.27116"/>
<circle class="l1" cx="853.334" cy="407.057" r="2.27116"/>
<circle class="l1" cx="798.09" cy="247.462" r="2.27116"/>
<circle class="l1" cx="798.09" cy="247.462" r="2.27116"/>
<circle class="l1" cx="773.537" cy="450.025" r="2.27116"/>
<circle class="l1" cx="773.537" cy="523.684" r="2.27116"/>
<circle class="l1" cx="791.951" cy="523.684" r="2.27116"/>
<circle class="l1" cx="853.334" cy="407.057" r="2.27116"/>
<circle class="l1" cx="853.334" cy="407.057" r="2.27116"/>
<circle class="l1" cx="810.366" cy="450.025" r="2.27116"/>
<circle class="l1" cx="810.366" cy="450.025" r="2.27116"/>
<circle class="l1" cx="853.334" cy="474.578" r="2.27116"/>
<circle class="l1" cx="853.334" cy="474.578" r="2.27116"/>
<circle class="l1" cx="853.334" cy="474.578" r="2.27116"/>
</svg>
